<?xml version="1.0" encoding="UTF-8"?>
<!DOCTYPE svg PUBLIC "-//W3C//DTD SVG 1.1//EN" "http://www.w3.org/Graphics/SVG/1.1/DTD/svg11.dtd">
<!-- Creator: CorelDRAW X7 -->
<svg xmlns="http://www.w3.org/2000/svg" xml:space="preserve" width="1.42752in" height="1.20311in" version="1.1" style="shape-rendering:geometricPrecision; text-rendering:geometricPrecision; image-rendering:optimizeQuality; fill-rule:evenodd; clip-rule:evenodd"
viewBox="0 0 1428 1203"
 xmlns:xlink="http://www.w3.org/1999/xlink">
 <defs>
  <style type="text/css">
   <![CDATA[
    .fil0 {fill:#783D1D}
    .fil1 {fill:#F2AE03}
    .fil2 {fill:#FB9B27}
   ]]>
  </style>
 </defs>
 <g id="Layer_x0020_1">
  <metadata id="CorelCorpID_0Corel-Layer"/>
  <g id="_781572672">
   <path class="fil0" d="M511 1196l455 0c25,-135 212,-469 174,-533 -28,-47 -109,-19 -161,-8 -94,19 -481,107 -521,103l-394 -557c-38,-44 -85,-14 -54,46 20,39 37,74 56,110l409 790c22,43 13,39 36,49z"/>
   <path class="fil1" d="M511 669c67,-13 462,-97 488,-116l-28 -134 -252 56c-32,-44 -77,-113 -115,-153 -120,-126 -324,31 -208,188 19,26 38,52 57,80 16,25 36,60 58,79z"/>
   <path class="fil2" d="M262 6c-163,48 -101,298 71,252 61,-17 113,-80 91,-162 -17,-62 -84,-113 -162,-90z"/>
   <path class="fil1" d="M1288 1203l140 -85 -210 -301c-8,-9 -4,-4 -13,-12 -54,218 -118,92 20,302 20,30 50,65 63,96z"/>
  </g>
 </g>
</svg>
