<?xml version="1.0" encoding="UTF-8"?>
<!DOCTYPE svg PUBLIC "-//W3C//DTD SVG 1.1//EN" "http://www.w3.org/Graphics/SVG/1.1/DTD/svg11.dtd">
<!-- Creator: CorelDRAW X7 -->
<svg xmlns="http://www.w3.org/2000/svg" xml:space="preserve" width="0.0533307in" height="0.0533307in" version="1.1" style="shape-rendering:geometricPrecision; text-rendering:geometricPrecision; image-rendering:optimizeQuality; fill-rule:evenodd; clip-rule:evenodd"
viewBox="0 0 53 53"
 xmlns:xlink="http://www.w3.org/1999/xlink">
 <defs>
  <style type="text/css">
   <![CDATA[
    .str0 {stroke:#ED3237;stroke-width:3;stroke-linecap:round;stroke-linejoin:round}
    .fil0 {fill:none;fill-rule:nonzero}
    .fil1 {fill:#FBF49B;fill-rule:nonzero}
   ]]>
  </style>
 </defs>
 <g id="Layer_x0020_1">
  <metadata id="CorelCorpID_0Corel-Layer"/>
  <g>
   <path class="fil0 str0" d="M13 15l12 0 0 3 -1 0c-1,0 -1,0 -2,0 0,0 0,0 0,1 0,0 0,0 0,1l0 10c0,2 0,3 0,3 -1,2 -1,3 -2,4 -1,0 -2,1 -3,2 -2,0 -3,1 -5,1 -2,0 -4,-1 -5,-1 -1,-1 -3,-2 -3,-3 -1,-1 -2,-3 -2,-4 0,-1 1,-2 1,-3 1,0 2,-1 3,-1 1,0 1,0 1,1 1,0 1,0 2,1 0,0 0,1 0,1l0 1c0,1 0,2 0,2 1,1 1,1 1,1 1,0 2,1 2,1 1,0 2,-1 2,-1 1,-1 1,-1 2,-2 0,-1 0,-2 0,-3l0 -10c0,-1 0,-1 0,-1 0,-1 -1,-1 -1,-1 0,0 0,0 -1,0l-1 0 0 -3z"/>
  </g>
  <g>
   <path id="1" class="fil0 str0" d="M29 14l2 0 0 1 14 0 0 -1 3 0 3 8 -3 2c-1,-2 -2,-3 -2,-3 -1,-1 -1,-2 -2,-2 -1,-1 -1,-1 -2,-1 0,0 0,0 -1,0 0,0 0,1 0,1l0 14c0,1 0,2 0,2 0,0 1,0 1,1 0,0 0,0 0,0 1,0 1,0 2,0l0 3 -12 0 0 -3 1 0c1,0 1,0 2,0 0,0 0,-1 0,-1 0,0 0,-1 0,-1l0 -15c0,0 0,-1 0,-1 0,0 0,0 -1,0 0,0 -1,0 -2,1 0,0 -1,1 -2,2 0,0 0,1 -1,3l-3 -2 3 -8z"/>
  </g>
  <path id="2" class="fil1" d="M13 15l12 0 0 3 -1 0c-1,0 -1,0 -2,0 0,0 0,0 0,1 0,0 0,0 0,1l0 10c0,2 0,3 0,3 -1,2 -1,3 -2,4 -1,0 -2,1 -3,2 -2,0 -3,1 -5,1 -2,0 -4,-1 -5,-1 -1,-1 -3,-2 -3,-3 -1,-1 -2,-3 -2,-4 0,-1 1,-2 1,-3 1,0 2,-1 3,-1 1,0 1,0 1,1 1,0 1,0 2,1 0,0 0,1 0,1l0 1c0,1 0,2 0,2 1,1 1,1 1,1 1,0 2,1 2,1 1,0 2,-1 2,-1 1,-1 1,-1 2,-2 0,-1 0,-2 0,-3l0 -10c0,-1 0,-1 0,-1 0,-1 -1,-1 -1,-1 0,0 0,0 -1,0l-1 0 0 -3z"/>
  <path id="3" class="fil1" d="M29 14l2 0 0 1 14 0 0 -1 3 0 3 8 -3 2c-1,-2 -2,-3 -2,-3 -1,-1 -1,-2 -2,-2 -1,-1 -1,-1 -2,-1 0,0 0,0 -1,0 0,0 0,1 0,1l0 14c0,1 0,2 0,2 0,0 1,0 1,1 0,0 0,0 0,0 1,0 1,0 2,0l0 3 -12 0 0 -3 1 0c1,0 1,0 2,0 0,0 0,-1 0,-1 0,0 0,-1 0,-1l0 -15c0,0 0,-1 0,-1 0,0 0,0 -1,0 0,0 -1,0 -2,1 0,0 -1,1 -2,2 0,0 0,1 -1,3l-3 -2 3 -8z"/>
 </g>
</svg>
