<?xml version="1.0" encoding="UTF-8"?>
<!DOCTYPE svg PUBLIC "-//W3C//DTD SVG 1.1//EN" "http://www.w3.org/Graphics/SVG/1.1/DTD/svg11.dtd">
<!-- Creator: CorelDRAW X7 -->
<svg xmlns="http://www.w3.org/2000/svg" xml:space="preserve" width="3.78524in" height="2.26307in" version="1.1" style="shape-rendering:geometricPrecision; text-rendering:geometricPrecision; image-rendering:optimizeQuality; fill-rule:evenodd; clip-rule:evenodd"
viewBox="0 0 3785 2263"
 xmlns:xlink="http://www.w3.org/1999/xlink">
 <defs>
  <style type="text/css">
   <![CDATA[
    .str0 {stroke:white;stroke-width:27.7795;stroke-linecap:round}
    .str1 {stroke:white;stroke-width:27.7795;stroke-linecap:round;stroke-dasharray:167.468504 167.468504}
    .fil5 {fill:none;fill-rule:nonzero}
    .fil9 {fill:#00B8EB}
    .fil8 {fill:#00D1AE}
    .fil11 {fill:#8F7DCC}
    .fil7 {fill:#DE0520}
    .fil10 {fill:#FFD83B}
    .fil1 {fill:#00B8EB;fill-rule:nonzero}
    .fil2 {fill:#00D1AE;fill-rule:nonzero}
    .fil0 {fill:#8F7DCC;fill-rule:nonzero}
    .fil4 {fill:#FF7361;fill-rule:nonzero}
    .fil3 {fill:#FFB506;fill-rule:nonzero}
    .fil6 {fill:white;fill-rule:nonzero}
   ]]>
  </style>
 </defs>
 <g id="Layer_x0020_1">
  <metadata id="CorelCorpID_0Corel-Layer"/>
  <g id="_785611104">
   <path class="fil0" d="M3674 639l0 1341 -250 0 0 -1341c0,-157 -128,-285 -285,-285 0,0 -1,0 -1,0l0 -250c0,0 1,0 1,0 295,0 535,240 535,535z"/>
   <path class="fil1" d="M2330 1884c157,0 285,-128 285,-286l0 -935c0,-295 240,-535 536,-535l0 250c-158,0 -286,128 -286,285l0 935c0,296 -240,536 -536,536 0,0 -1,0 -1,0l0 -250c0,0 1,0 2,0z"/>
   <path class="fil2" d="M1508 128c0,0 0,0 1,0 295,0 535,240 535,535l0 935c0,157 127,284 284,286l0 250c-295,-1 -534,-241 -534,-536l0 -935c0,-157 -128,-285 -286,-285 0,0 0,0 0,0l0 -250z"/>
   <g>
    <path class="fil3" d="M688 1884c157,-1 285,-129 285,-286l0 -935c0,-295 240,-535 535,-535l0 250c-157,0 -285,128 -285,285l0 935c0,295 -240,535 -535,536l0 -250z"/>
   </g>
   <path class="fil4" d="M152 1598l0 -1341 250 0 0 1341c0,158 128,286 285,286 1,0 1,0 1,0l0 250c0,0 0,0 -1,0 -295,0 -535,-240 -535,-536z"/>
   <g>
    <g>
     <line class="fil5 str0" x1="277" y1="257" x2="277" y2= "317" />
     <line class="fil5 str1" x1="277" y1="438" x2="277" y2= "1598" />
     <path class="fil5 str1" d="M277 1598c0,227 184,411 410,411"/>
     <path class="fil5 str1" d="M687 2009c227,0 411,-184 411,-411"/>
     <line class="fil5 str1" x1="1098" y1="1598" x2="1098" y2= "663" />
     <path class="fil5 str1" d="M1098 663c0,-226 184,-410 410,-410"/>
     <line class="fil5 str1" x1="1508" y1="253" x2="1509" y2= "253" />
     <path class="fil5 str1" d="M1509 253c226,0 410,184 410,410"/>
     <line class="fil5 str1" x1="1919" y1="663" x2="1919" y2= "1598" />
     <path class="fil5 str1" d="M1919 1598c0,227 184,411 410,411"/>
     <line class="fil5 str1" x1="2329" y1="2009" x2="2330" y2= "2009" />
     <path class="fil5 str1" d="M2330 2009c227,0 410,-184 410,-411"/>
     <line class="fil5 str1" x1="2740" y1="1598" x2="2740" y2= "663" />
     <path class="fil5 str1" d="M2740 663c0,-226 184,-410 411,-410"/>
     <path class="fil5 str1" d="M3151 253c226,0 410,184 410,410"/>
     <line class="fil5 str1" x1="3561" y1="663" x2="3561" y2= "1860" />
     <line class="fil5 str0" x1="3561" y1="1920" x2="3561" y2= "1980" />
    </g>
   </g>
   <g>
    <path class="fil4" d="M275 551c153,0 276,-123 276,-276 0,-152 -123,-275 -276,-275 -152,0 -275,123 -275,275 0,153 123,276 275,276z"/>
   </g>
   <g>
    <path class="fil0" d="M3510 2263c152,0 275,-123 275,-275 0,-153 -123,-276 -275,-276 -152,0 -276,123 -276,276 0,152 124,275 276,275z"/>
   </g>
   <g>
    <path class="fil6" d="M3510 2189c111,0 202,-90 202,-201 0,-112 -91,-202 -202,-202 -112,0 -202,90 -202,202 0,111 90,201 202,201z"/>
   </g>
   <g>
    <path class="fil4" d="M688 2263c152,0 276,-123 276,-275 0,-153 -124,-276 -276,-276 -152,0 -275,123 -275,276 0,152 123,275 275,275z"/>
   </g>
   <g>
    <path class="fil6" d="M688 2189c112,0 202,-90 202,-201 0,-112 -90,-202 -202,-202 -111,0 -202,90 -202,202 0,111 91,201 202,201z"/>
   </g>
   <g>
    <path class="fil6" d="M270 469c112,0 202,-91 202,-202 0,-112 -90,-202 -202,-202 -111,0 -202,90 -202,202 0,111 91,202 202,202z"/>
   </g>
   <g>
    <path class="fil3" d="M1508 551c152,0 276,-123 276,-276 0,-152 -124,-275 -276,-275 -152,0 -275,123 -275,275 0,153 123,276 275,276z"/>
   </g>
   <g>
    <path class="fil6" d="M1508 477c111,0 202,-90 202,-202 0,-111 -91,-201 -202,-201 -111,0 -202,90 -202,201 0,112 91,202 202,202z"/>
   </g>
   <g>
    <path class="fil1" d="M3148 551c152,0 276,-123 276,-276 0,-152 -124,-275 -276,-275 -152,0 -275,123 -275,275 0,153 123,276 275,276z"/>
   </g>
   <g>
    <path class="fil6" d="M3148 477c112,0 202,-90 202,-202 0,-111 -90,-201 -202,-201 -111,0 -202,90 -202,201 0,112 91,202 202,202z"/>
   </g>
   <path class="fil7" d="M262 265c-54,-2 -52,-82 3,-79 48,9 43,75 -3,79zm0 -108c-62,2 -86,65 -61,107 15,25 47,112 57,128l5 2c8,-7 47,-109 58,-129 28,-52 -5,-106 -59,-108z"/>
   <path class="fil8" d="M1519 265c-54,-2 -52,-82 3,-79 49,9 44,75 -3,79zm0 -108c-61,2 -85,65 -60,107 14,25 47,112 57,128l5 2c8,-7 47,-109 58,-129 27,-52 -6,-106 -60,-108z"/>
   <path class="fil9" d="M3151 265c-54,-2 -52,-82 3,-79 48,9 44,75 -3,79zm0 -108c-61,2 -86,65 -61,107 15,25 48,112 58,128l5 2c7,-7 47,-109 58,-129 27,-52 -6,-106 -60,-108z"/>
   <path class="fil10" d="M689 1977c-54,-2 -52,-81 3,-79 48,9 44,75 -3,79zm0 -108c-61,2 -86,65 -61,107 15,25 48,112 58,128l5 2c7,-7 47,-109 57,-129 28,-51 -5,-106 -59,-108z"/>
   <path class="fil11" d="M3510 1977c-54,-2 -52,-81 2,-79 49,9 44,75 -2,79zm0 -108c-62,2 -86,65 -61,107 15,25 47,112 57,128l5 2c8,-7 47,-109 58,-129 27,-51 -5,-106 -59,-108z"/>
  </g>
 </g>
</svg>
