<?xml version="1.0" encoding="UTF-8"?>
<!DOCTYPE svg PUBLIC "-//W3C//DTD SVG 1.1//EN" "http://www.w3.org/Graphics/SVG/1.1/DTD/svg11.dtd">
<!-- Creator: CorelDRAW X7 -->
<svg xmlns="http://www.w3.org/2000/svg" xml:space="preserve" width="1.19594in" height="1.20311in" version="1.1" style="shape-rendering:geometricPrecision; text-rendering:geometricPrecision; image-rendering:optimizeQuality; fill-rule:evenodd; clip-rule:evenodd"
viewBox="0 0 1196 1203"
 xmlns:xlink="http://www.w3.org/1999/xlink">
 <defs>
  <style type="text/css">
   <![CDATA[
    .fil5 {fill:black;fill-rule:nonzero}
    .fil4 {fill:#2C95C2;fill-rule:nonzero}
    .fil2 {fill:#2D87AF;fill-rule:nonzero}
    .fil0 {fill:#3BA5D3;fill-rule:nonzero}
    .fil1 {fill:#4DB6E4;fill-rule:nonzero}
    .fil3 {fill:#DFDFDD;fill-rule:nonzero}
   ]]>
  </style>
 </defs>
 <g id="Layer_x0020_1">
  <metadata id="CorelCorpID_0Corel-Layer"/>
  <g id="_783910592">
   <g>
    <path class="fil0" d="M60 303l1076 0c22,0 40,17 40,39l0 798c0,22 -18,40 -40,40l-1076 0c-22,0 -40,-18 -40,-40l0 -798c0,-22 18,-39 40,-39z"/>
    <path class="fil1" d="M60 303l1076 0c22,0 40,17 40,39l0 359c0,22 -18,40 -40,40l-1076 0c-22,0 -40,-18 -40,-40l0 -359c0,-22 18,-39 40,-39z"/>
    <path class="fil2" d="M299 462l598 0c33,0 60,27 60,60 0,33 -27,60 -60,60l-598 0c-33,0 -60,-27 -60,-60 0,-33 27,-60 60,-60z"/>
    <path class="fil3" d="M857 582l-518 0 -180 -479c66,-49 132,-106 218,-63l12 6c43,22 95,21 137,-3 45,-26 99,-26 144,0 42,24 94,25 137,3l12 -6c84,-42 152,14 217,63l-179 479z"/>
    <path class="fil4" d="M837 960l160 0c33,0 59,27 59,60 0,33 -26,60 -59,60l-160 0c-33,0 -60,-27 -60,-60 0,-33 27,-60 60,-60z"/>
    <path class="fil5" d="M1136 283l-100 0 0 39 100 0c11,0 20,9 20,20l0 359c0,11 -9,20 -20,20l-1076 0c-11,0 -20,-9 -20,-20l0 -359c0,-11 9,-20 20,-20l119 0 0 -39 -119 0c-33,0 -60,26 -60,59l0 798c0,33 27,59 60,59l1076 0c33,0 60,-26 60,-59l0 -80 -40 0 0 80c0,11 -9,20 -20,20l-1076 0c-11,0 -20,-9 -20,-20l0 -382c6,2 13,3 20,3l1076 0c7,0 14,-1 20,-3l0 262 40 0 0 -678c0,-33 -27,-59 -60,-59z"/>
    <path class="fil5" d="M268 448c-10,4 -18,10 -25,17 -32,32 -32,82 0,113 15,15 35,24 56,24l598 0c44,0 80,-36 80,-80 0,-32 -19,-61 -49,-73l127 -339c3,-8 1,-17 -7,-23 -3,-2 -6,-4 -9,-7 -65,-48 -138,-103 -229,-57l0 0c-3,1 -6,3 -12,6 -37,19 -82,17 -118,-4 -51,-29 -113,-29 -164,0 -36,21 -81,23 -118,4l-12 -6c-30,-15 -60,-20 -90,-16l6 39c22,-3 44,1 66,12l12 6c49,25 108,24 156,-4 38,-22 86,-22 124,0 48,28 107,29 156,4l12 -6 0 0c68,-34 125,7 185,52l-170 452 -490 0 -170 -452c28,-20 56,-41 84,-54l-16 -36c-33,14 -63,37 -92,58 -4,3 -8,6 -11,9 -2,2 -4,3 -5,5 -6,8 -3,15 0,24l125 332zm646 38l0 0c14,7 23,20 23,36 0,22 -18,40 -40,40l-11 0 28 -76zm-615 76l0 0c-22,0 -40,-18 -40,-40 0,-15 9,-29 23,-36l28 76 -11 0z"/>
    <polygon class="fil5" points="439,145 478,138 538,458 499,465 "/>
    <polygon class="fil5" points="638,457 718,137 757,147 677,467 "/>
    <path class="fil5" d="M837 940c-44,0 -80,36 -80,80 0,44 36,80 80,80l160 0c44,0 79,-36 79,-80 0,-44 -35,-80 -79,-80l-160 0zm199 80l0 0c0,22 -17,40 -39,40l-160 0c-22,0 -40,-18 -40,-40 0,-22 18,-40 40,-40l160 0c22,0 39,18 39,40z"/>
   </g>
  </g>
 </g>
</svg>
