<?xml version="1.0" encoding="UTF-8"?>
<!DOCTYPE svg PUBLIC "-//W3C//DTD SVG 1.1//EN" "http://www.w3.org/Graphics/SVG/1.1/DTD/svg11.dtd">
<!-- Creator: CorelDRAW X7 -->
<svg xmlns="http://www.w3.org/2000/svg" xml:space="preserve" width="1.2in" height="1.20311in" version="1.1" style="shape-rendering:geometricPrecision; text-rendering:geometricPrecision; image-rendering:optimizeQuality; fill-rule:evenodd; clip-rule:evenodd"
viewBox="0 0 1200 1203"
 xmlns:xlink="http://www.w3.org/1999/xlink">
 <defs>
  <style type="text/css">
   <![CDATA[
    .fil0 {fill:#303191;fill-rule:nonzero}
   ]]>
  </style>
 </defs>
 <g id="Layer_x0020_1">
  <metadata id="CorelCorpID_0Corel-Layer"/>
  <g id="_781788416">
   <g>
    <g>
     <path class="fil0" d="M258 624l-182 -182c-49,-49 -76,-114 -76,-183 0,-142 116,-258 258,-258 142,0 258,116 258,258 0,69 -27,134 -76,183l-182 182zm0 -552l0 0c-104,0 -188,84 -188,187 0,50 20,97 55,133l133 132 132 -132c36,-36 55,-83 55,-133 0,-103 -84,-187 -187,-187z"/>
    </g>
    <g>
     <path class="fil0" d="M258 377c-65,0 -117,-53 -117,-118 0,-64 52,-117 117,-117 64,0 117,53 117,117 0,65 -53,118 -117,118zm0 -165l0 0c-26,0 -47,21 -47,47 0,26 21,47 47,47 26,0 47,-21 47,-47 0,-26 -21,-47 -47,-47z"/>
    </g>
    <g>
     <path class="fil0" d="M1012 1202l-132 -133c-36,-35 -55,-82 -55,-133 0,-103 84,-187 187,-187 104,0 188,84 188,187 0,51 -20,98 -55,133l-133 133zm-82 -183l0 0 82 83 83 -83c22,-22 35,-51 35,-83 0,-64 -53,-117 -118,-117 -64,0 -117,53 -117,117 0,32 12,61 35,83z"/>
    </g>
    <g>
     <path class="fil0" d="M841 1201l-392 0c-125,0 -226,-101 -226,-226 0,-125 101,-226 226,-226l130 0c39,0 70,-31 70,-70 0,-38 -31,-70 -70,-70l-136 0 0 -70 136 0c78,0 141,63 141,140 0,77 -63,140 -141,140l-130 0c-86,0 -156,70 -156,156 0,86 70,156 156,156l392 0 0 70 0 0z"/>
    </g>
   </g>
  </g>
 </g>
</svg>
